<svg width="401" viewBox="0 0 501 501" style="enable-background:new 0 0 501 501" xml:space="preserve"><defs><mask id="a"><path fill="#FFF" d="M294.3 377.1c-32.8 9.4-68.2 9.3-101-.2-7.1-60.7-14.1-119.7-21.5-175.6h144.8c-7.6 55.9-14.9 115-22.3 175.8z"/></mask></defs><path class="bg" d="M.5.5h500v500H.5z"/><path class="cup" d="M301.4 382.2c-37.4 10.4-77.9 10.3-115.2-.3-8.1-66.7-16.1-131.6-24.5-193h165.2c-8.8 61.4-17.1 126.4-25.5 193.3z"/><g mask="url(#a)"><path class="liquid" d="M293.8 376.6c-32.8 9.4-68.2 9.3-101-.2-7.1-60.7-14.1-119.7-21.5-175.6 0 0 12-7.1 31.3-.4 29.8 10.3 32.7-.2 48.7-.2 27.4 0 29.2 8.8 44.7 1.3 14.7-7.1 20.2-.7 20.2-.7-7.7 55.9-15 115-22.4 175.8z"/></g><path class="steam" d="M308.5 169s-16.5-17-13-32.5 22-5.5 13.5 6c-7.9 10.6-23.8-6.9-12-21.8 11.5-14.5 10.7-22 10-24.8-5-18.4-18.6-5.8-12.6-1.1 9.4 7.1 15.2-16.5 13.2-24.5"/><path class="sleeve" d="M310.2 334.2c-44 5.4-88.4 5.4-132.4 0-3.2-27.8-6.4-55.7-9.6-83.6 50.4 7.2 101.6 7.2 152 0-3.3 27.8-6.7 55.7-10 83.6z"/><path class="lid" d="M337.2 187v13.8s-15.8 3.7-92 3.7-92-3.7-92-3.7V187c0-1.8 1.4-3.2 3.2-3.2h5.8v-11.5c0-3.6 2.9-6.5 6.5-6.5h131.8l3.4 2.2c1.1.7 2.5.7 3.7 0l3.7-2.2h10.9c3.3 0 6.1 2.7 6.1 6.1v11.9h5.8c1.7 0 3.1 1.4 3.1 3.2z"/></svg>