<svg width="14" height="26" viewBox="0 0 14 26" fill="none" xmlns="http://www.w3.org/2000/svg">
<path d="M9.22975 25.9794C9.09346 25.9845 9.00623 25.9948 8.919 25.9948C7.05452 25.9948 5.19548 25.9897 3.331 26C3.06931 26 2.99844 25.9329 2.99844 25.6853C3.00389 21.5781 3.00389 17.4658 3.00389 13.3586C3.00389 13.2503 3.00389 13.1419 3.00389 13.0026C1.98988 13.0026 1.00312 13.0026 0 13.0026C0 11.5372 0 10.0976 0 8.6168C0.103583 8.6168 0.201713 8.6168 0.294393 8.6168C1.11215 8.6168 1.92991 8.61164 2.74766 8.62196C2.95483 8.62196 3.00935 8.5652 3.00935 8.37429C2.99844 7.22367 2.99844 6.06788 3.00935 4.91726C3.0148 4.11234 3.15109 3.32805 3.54361 2.60053C4.10514 1.57374 4.99377 0.908129 6.11682 0.495349C7.03271 0.154806 7.99766 0.0309714 8.96807 0.0154922C10.5491 -0.00514685 12.1301 0.00517265 13.7111 1.28993e-05C13.8583 1.28993e-05 13.9782 -0.00514684 13.9782 0.190924C13.9727 1.60986 13.9727 3.02879 13.9727 4.44772C13.9727 4.4632 13.9673 4.47868 13.9455 4.54576C13.8528 4.54576 13.7492 4.54576 13.6456 4.54576C12.6643 4.54576 11.683 4.5406 10.7017 4.54576C10.1347 4.54576 9.67679 4.76247 9.38785 5.232C9.30062 5.37132 9.24611 5.55191 9.24611 5.71702C9.22975 6.59418 9.24611 7.47134 9.2352 8.34849C9.2352 8.55488 9.30062 8.61164 9.51324 8.61164C10.8762 8.60132 12.2391 8.60648 13.602 8.60648C13.7111 8.60648 13.8146 8.60648 14 8.60648C13.8092 10.0822 13.6238 11.5269 13.433 12.9871C12.0156 12.9871 10.6363 12.9871 9.22975 12.9871C9.22975 17.3265 9.22975 21.64 9.22975 25.9794Z" fill="black"/>
</svg>
