<svg width="58" height="58" viewBox="0 0 58 58" fill="none" xmlns="http://www.w3.org/2000/svg">
<path d="M29 0C13.0178 0 0 13.0178 0 29C0 44.9822 13.0178 58 29 58C44.9822 58 58 44.9822 58 29C58 13.0178 44.9822 0 29 0ZM29 51.5556C16.5622 51.5556 6.44444 41.4378 6.44444 29C6.44444 16.5622 16.5622 6.44444 29 6.44444C41.4378 6.44444 51.5556 16.5622 51.5556 29C51.5556 41.4378 41.4378 51.5556 29 51.5556Z" fill="#5B815D"/>
<path d="M25.7778 30.8689L19.3334 24.4244L14.7578 29L25.7778 40.02L43.2423 22.5555L38.6667 17.98L25.7778 30.8689Z" fill="#5B815D"/>
</svg>
