<svg width="70" height="70" viewBox="0 0 70 70" fill="none" xmlns="http://www.w3.org/2000/svg">
<circle cx="35" cy="35" r="35" fill="#97C89A" fill-opacity="0.2"/>
<path d="M40.5226 20H29.4855C26.2263 20 23.5596 22.6341 23.5596 25.8537V30.3171H22.8929C20.0781 30.4268 17.8929 32.7683 18.0041 35.5854C18.0781 37.4878 19.2633 39.2073 21.0411 39.9756V43.6341C21.0411 45.1341 22.0781 46.4512 23.5596 46.8171V48.9024C23.5596 49.5244 24.0411 50 24.6707 50C25.2633 50.0366 25.7448 49.561 25.7818 48.9756C25.7818 48.939 25.7818 48.939 25.7818 48.9024V46.8902H44.2263V48.7561C44.2263 49.378 44.7078 49.8537 45.3374 49.8537C45.93 49.8171 46.4115 49.3415 46.4485 48.7561V46.7805C47.93 46.4146 48.967 45.0976 48.967 43.5976V39.939C51.5596 38.8049 52.7078 35.8415 51.5596 33.2805C50.7818 31.5244 49.0411 30.3537 47.1152 30.2805H46.4485V25.8537C46.4485 22.5976 43.7818 20 40.5226 20ZM25.7818 25.8537C25.7818 23.8415 27.4485 22.1951 29.4855 22.1951H40.5226C42.5596 22.1951 44.2263 23.8415 44.2263 25.8537V31.0488C43.93 31.2317 43.6337 31.4512 43.3744 31.7073C42.8189 32.2195 42.4115 32.8415 42.1522 33.5366H27.8559C27.5966 32.8415 27.1892 32.2195 26.6337 31.7073C26.3744 31.4512 26.0781 31.2317 25.7818 31.0488V25.8537ZM28.1892 35.7317H41.8189V38.9878H28.1892V35.7317ZM49.8189 35.0366C49.967 36.4634 49.0041 37.7805 47.5966 38.1098C47.1152 38.2195 46.7448 38.6585 46.7448 39.1707V43.5976C46.7448 44.2195 46.2633 44.6951 45.6337 44.6951H24.3744C23.7448 44.6951 23.2633 44.2195 23.2633 43.5976V39.1707C23.2633 38.6585 22.8929 38.2195 22.4115 38.1098C20.8559 37.7439 19.8929 36.2439 20.2263 34.7073C20.5226 33.4268 21.6337 32.5488 22.967 32.4756H23.0781C23.8189 32.4756 24.5226 32.7683 25.0781 33.2805C25.6337 33.8293 25.967 34.561 25.967 35.3293V40.0854C25.93 40.6707 26.4115 41.1463 27.0041 41.1829C27.0411 41.1829 27.0411 41.1829 27.0781 41.1829H42.93C43.5226 41.2195 44.0041 40.7439 44.0411 40.1585C44.0411 40.122 44.0411 40.122 44.0411 40.0854V35.3293C44.0781 33.7195 45.3744 32.439 47.0041 32.4756H47.0411C48.4855 32.5122 49.6337 33.6098 49.8189 35.0366Z" fill="#5B815D"/>
</svg>
