<svg width="70" height="70" viewBox="0 0 70 70" fill="none" xmlns="http://www.w3.org/2000/svg">
<circle cx="35" cy="35" r="35" fill="#97C89A" fill-opacity="0.2"/>
<path d="M19.2222 30.9464C18.0388 32.2477 16.1981 30.4259 17.3814 29.1246C27.1112 19.6251 42.8891 19.6251 52.6189 29.1246C53.8022 30.4259 51.9614 32.2477 50.7781 30.9464C42.1002 22.488 27.9001 22.488 19.2222 30.9464Z" fill="#5B815D"/>
<path d="M24.35 36.0214C23.1667 37.3227 21.3259 35.5009 22.5092 34.1996C29.3463 27.4328 40.6539 27.4328 47.491 34.1996C48.6743 35.5009 46.8336 37.3227 45.6502 36.0214C39.865 30.2957 30.2667 30.2957 24.35 36.0214Z" fill="#5B815D"/>
<path d="M29.4779 41.0967C28.2945 42.398 26.4538 40.5761 27.6371 39.2748C31.7131 35.3709 38.2872 35.3709 42.3632 39.2748C43.5465 40.5761 41.7058 42.398 40.5224 41.0967C37.4983 38.2338 32.502 38.2338 29.4779 41.0967Z" fill="#5B815D"/>
<path d="M35.0001 43.3088C36.3149 43.3088 37.3668 44.3499 37.3668 45.6512C37.3668 46.9525 36.3149 47.9935 35.0001 47.9935C33.6853 47.9935 32.6334 46.9525 32.6334 45.6512C32.6334 44.3499 33.6853 43.3088 35.0001 43.3088Z" fill="#5B815D"/>
</svg>
