<svg width="70" height="70" viewBox="0 0 70 70" fill="none" xmlns="http://www.w3.org/2000/svg">
<circle cx="35" cy="35" r="35" fill="#97C89A" fill-opacity="0.2"/>
<path d="M53 31.5686C53 28.5362 50.9532 25.9426 48.1037 25.1047C47.7826 21.7132 44.893 19 41.3612 19C40.1171 19 38.913 19.3192 37.8696 19.9576C36.8261 19.3192 35.6221 19 34.3779 19C33.1338 19 31.9298 19.3192 30.8863 19.9576C29.8428 19.3192 28.6388 19 27.3946 19C23.7023 19 20.7324 21.9526 20.6522 25.5835C18.4448 26.7007 17 29.015 17 31.5686C17 34.5611 19.0067 37.1147 21.7358 37.9925L24.4247 51H44.4114L47.0201 38.2319C50.3913 37.8329 53 35 53 31.5686ZM42.4448 48.606H26.3913L24.2642 38.2718C25.388 38.192 26.4314 37.8329 27.3545 37.2344L28.1973 46.3716L30.6054 46.1721L29.8428 38.1521C30.2843 38.2319 30.7659 38.3117 31.2475 38.3117C31.9298 38.3117 32.5719 38.192 33.214 38.0324V46.3317H35.6221V37.5137C36.5853 37.9925 37.6288 38.2718 38.7525 38.2718C38.8328 38.2718 38.913 38.2718 38.9933 38.2718L38.2709 46.1721L40.6789 46.3716L41.4816 37.7132C41.8428 37.5536 42.204 37.3541 42.5251 37.1546C43.1672 37.5935 43.8896 37.9127 44.6522 38.0723L42.4448 48.606ZM46.2174 35.9177C45.1338 35.9177 44.0903 35.5187 43.2876 34.7606L42.485 34.0025L41.6823 34.7606C40.8796 35.4788 39.8361 35.9177 38.7525 35.9177C37.6689 35.9177 36.6254 35.5187 35.8227 34.7606L35.0201 34.0025L34.2174 34.7606C33.4147 35.4788 32.3712 35.9177 31.2876 35.9177C30.204 35.9177 29.1605 35.5187 28.3579 34.7606L27.5552 34.0025L26.7525 34.7606C25.9498 35.4788 24.9064 35.9177 23.8227 35.9177C21.4147 35.9177 19.4883 33.9626 19.4883 31.6085C19.4883 29.7731 20.6522 28.1372 22.4181 27.5387L23.3411 27.2195L23.2207 26.2618C23.1806 26.0623 23.1806 25.9027 23.1806 25.7431C23.1806 23.3491 25.1472 21.4339 27.5151 21.4339C28.5184 21.4339 29.4415 21.7531 30.2441 22.3915L31.0067 22.99L31.7692 22.3915C32.5318 21.7531 33.495 21.4339 34.4983 21.4339C35.5017 21.4339 36.4247 21.7531 37.2274 22.3915L37.99 22.99L38.6722 22.3516C39.4348 21.7132 40.398 21.394 41.4013 21.394C43.8094 21.394 45.7358 23.3491 45.7358 25.7032C45.7358 25.783 45.7358 25.8628 45.7358 25.9426L45.6555 27.1397L46.7793 27.2594C48.9465 27.5387 50.592 29.3741 50.592 31.5287C50.592 33.9626 48.6254 35.9177 46.2174 35.9177Z" fill="#5B815D"/>
<path d="M27.3769 25.8812L25.6165 27.5146L27.4785 29.4983L29.2389 27.8648L27.3769 25.8812Z" fill="#5B815D"/>
<path d="M33.5572 29.2827L33.5172 31.6765L36.246 31.7215L36.286 29.3278L33.5572 29.2827Z" fill="#5B815D"/>
<path d="M40.7335 24.5484L39.7016 27.0603L41.931 27.9654L42.9629 25.4536L40.7335 24.5484Z" fill="#5B815D"/>
</svg>
