<svg width="70" height="70" viewBox="0 0 70 70" fill="none" xmlns="http://www.w3.org/2000/svg">
<circle cx="35" cy="35" r="35" fill="#97C89A" fill-opacity="0.2"/>
<path d="M34.3165 20.0217C35.4534 18.88 35.4534 17.0357 34.3165 15.85C33.8792 15.4109 33.8792 14.7083 34.3165 14.3131C34.7537 13.9179 35.4534 13.874 35.847 14.3131C37.8585 16.3331 37.8585 19.5826 35.847 21.5587C34.71 22.7004 34.71 24.5447 35.847 25.7303C36.2842 26.1695 36.2842 26.8721 35.847 27.2673C35.4097 27.6625 34.71 27.7064 34.3165 27.2673C32.3487 25.2912 32.3487 22.0417 34.3165 20.0217ZM40.8757 21.6904C39.3452 23.2273 39.3452 25.7743 40.8757 27.3112C41.313 27.7503 42.0127 27.7503 42.4062 27.3112C42.8435 26.8721 42.8435 26.1695 42.4062 25.7743C41.7066 25.0717 41.7066 23.9738 42.4062 23.2712C43.9367 21.7343 43.9367 19.1874 42.4062 17.6504C41.9689 17.2113 41.2693 17.2113 40.8757 17.6504C40.4822 18.0896 40.4384 18.7922 40.8757 19.1874C41.5754 19.8461 41.5754 20.9878 40.8757 21.6904ZM27.7572 27.3112C28.1945 27.7503 28.8941 27.7503 29.2877 27.3112C29.6812 26.8721 29.725 26.1695 29.2877 25.7743C28.588 25.0717 28.588 23.9738 29.2877 23.2712C30.8182 21.7343 30.8182 19.1874 29.2877 17.6504C28.8504 17.2113 28.1507 17.2113 27.7572 17.6504C27.3636 18.0896 27.3199 18.7922 27.7572 19.1874C28.4568 19.89 28.4568 20.9878 27.7572 21.6904C26.2267 23.2273 26.2267 25.7303 27.7572 27.3112ZM17 51.9022C17 51.2874 17.481 50.8044 18.0932 50.8044H25.7457C23.4281 49.3113 21.6789 47.0279 20.8044 44.3931C20.7169 44.1736 20.6732 43.954 20.5857 43.7345C19.58 40.2654 18.9678 36.7085 18.7491 33.1516C18.7054 32.3172 19.0115 31.5268 19.58 30.912C20.1484 30.2972 20.9356 29.9459 21.7664 29.9459H46.3418C47.1726 29.9459 47.9597 30.2972 48.5282 30.912C49.0967 31.5268 49.4028 32.3172 49.3153 33.1516C49.2716 33.8981 49.1841 34.6885 49.0967 35.4789H49.7526C52.6387 35.4789 55 37.8502 55 40.7484C55 41.1875 54.9563 41.5828 54.8251 42.0219C54.2566 44.3492 52.1577 46.0179 49.7526 46.0179H46.6041C45.5984 47.9501 44.1116 49.6187 42.275 50.8044H49.7526C50.3648 50.8044 50.8458 51.2874 50.8458 51.9022C50.8458 52.517 50.3648 53 49.7526 53H18.0932C17.481 52.9561 17 52.473 17 51.9022ZM47.4787 43.7784H49.7963C51.1956 43.7784 52.42 42.8123 52.7699 41.451C53.1634 39.7823 52.1576 38.1576 50.5397 37.7185C50.3211 37.6745 50.0587 37.6306 49.7963 37.6306H48.8343C48.5282 39.6945 48.0909 41.7145 47.5224 43.6905L47.4787 43.7784ZM32.786 50.6726H35.3222C39.9574 50.7165 44.0679 47.6427 45.4235 43.2075L45.4672 43.1197C46.3855 39.8263 46.9977 36.445 47.2163 33.0198C47.2163 32.8003 47.1289 32.5807 46.9977 32.449C46.8228 32.2733 46.6041 32.1855 46.3855 32.1855H21.7664C21.5478 32.1855 21.3291 32.2733 21.1542 32.449C20.9793 32.5807 20.9356 32.8003 20.9356 33.0198C21.1542 36.445 21.7664 39.8263 22.6847 43.1197C22.7284 43.2953 22.8159 43.471 22.8596 43.6905C24.3026 47.9061 28.3257 50.7605 32.786 50.6726Z" fill="#5B815D"/>
</svg>
