<svg width="14" height="26" fill="none" xmlns="http://www.w3.org/2000/svg"><path d="M9.23 25.98c-.137.005-.224.015-.311.015-1.864 0-3.724-.005-5.588.005-.262 0-.333-.067-.333-.315.006-4.107.006-8.22.006-12.326v-.356H0V8.617h.294c.818 0 1.636-.005 2.454.005.207 0 .261-.057.261-.248-.01-1.15-.01-2.306 0-3.457.006-.805.142-1.589.535-2.316C4.105 1.574 4.994.908 6.117.495c.916-.34 1.88-.464 2.851-.48C10.55-.005 12.13.005 13.711 0c.147 0 .267-.005.267.19-.005 1.42-.005 2.839-.005 4.258 0 .015-.006.03-.028.098h-.3c-.98 0-1.962-.005-2.943 0-.567 0-1.025.216-1.314.686a.953.953 0 00-.142.485c-.016.877 0 1.754-.01 2.631 0 .207.065.264.277.264 1.363-.01 2.726-.006 4.089-.006H14c-.19 1.476-.376 2.92-.567 4.381H9.23V25.98z" fill="#000"/></svg>